# xmcd
#
# Track frame offsets:
#	150
#	17232
#	34357
#	48380
#	71490
#	87970
#	107637
#	132175
#	150877
#	162292
#	187500
#	201702
#	219725
#	234625
#	248632
#	267625
#
# Disc length: 4016 seconds
#
# Revision: 1
# Processed by: cddbd v1.5.2PL0 Copyright (c) Steve Scherf et al.
# Submitted via: audiograbber 1.83.01
#
DISCID=de0fae10
DTITLE=Fuat Saka - Lazutlar Livera
DYEAR=2004
DGENRE=Karadeniz
TTITLE0=Simdi Ne Yapar
TTITLE1=Cikmaz Sokaklar
TTITLE2=Rap Atma 4 - Livera
TTITLE3=Ciger Parem
TTITLE4=Mecnundan Keremden
TTITLE5=Ah Be Dünya
TTITLE6=Yildizlara Yolculuk
TTITLE7=Balli Kiz
TTITLE8=Yayla Zamani
TTITLE9=Omuzdan Kesilmis
TTITLE10=Al Götür Beni
TTITLE11=Zeybetiko Topraga Ask
TTITLE12=Madrova
TTITLE13=Sensiz Bu Yerde
TTITLE14=Cakircali
TTITLE15=Gelecekten Haber
EXTD=
EXTT0=
EXTT1=
EXTT2=
EXTT3=
EXTT4=
EXTT5=
EXTT6=
EXTT7=
EXTT8=
EXTT9=
EXTT10=
EXTT11=
EXTT12=
EXTT13=
EXTT14=
EXTT15=
PLAYORDER=
